#!OML:ASF H:\Martial Arts Walks\Project 1\Capture day 1\Session 1\male.ASF
:FULLY-SPECIFIED
:DEGREES
782
root -0.748347 15.2088 7.84764 7.24625 -5.24544 -3.53289
lowerback 16.4066 4.36728 -4.57366
upperback 1.06678 4.97883 0.700557
thorax -8.50506 2.57702 2.15668
lowerneck -1.84356 -4.47041 -3.96583
upperneck -0.153672 -5.93096 6.56019
head 0.609394 -2.93668 2.68477
rclavicle -3.52843e-014 4.57205e-015
rhumerus -31.7339 13.8009 -71.1091
rradius 89.8511
rwrist 5.60538
rhand -21.2572 -42.6645
rfingers 7.12502
rthumb 5.12604 -72.5825
lclavicle -3.52843e-014 4.57205e-015
lhumerus -8.95437 -17.9644 76.3715
lradius 86.7391
lwrist 27.6022
lhand -28.5836 18.9081
lfingers 7.12502
lthumb -1.94953 48.879
rfemur -46.0238 -7.73781 18.6274
rtibia 101.551
rfoot -15.9798 -16.6679
rtoes -19.8829
lfemur -47.1017 -1.34811 -18.4865
ltibia 64.9933
lfoot -18.957 13.125
ltoes 1.62673
783
root -0.7561 15.2711 7.96432 6.51117 -4.74023 -3.76847
lowerback 17.0232 4.25481 -4.52299
upperback 1.51542 4.82995 0.929911
thorax -8.3617 2.49647 2.39214
lowerneck -2.21127 -4.27799 -4.24682
upperneck -0.034701 -5.66656 6.89013
head 0.717511 -2.7955 2.84313
rclavicle -1.50082e-014 2.78299e-015
rhumerus -31.7744 12.9942 -71.1071
rradius 89.132
rwrist 5.45422
rhand -21.4556 -42.6068
rfingers 7.12502
rthumb 4.93447 -72.5293
lclavicle -1.50082e-014 2.78299e-015
lhumerus -8.02463 -17.974 76.4135
lradius 85.9756
lwrist 27.091
lhand -28.7589 18.5814
lfingers 7.12502
lthumb -2.11881 48.5506
rfemur -49.8974 -7.88244 19.6851
rtibia 102.886
rfoot -16.1751 -16.0976
rtoes -21.8199
lfemur -45.4213 -1.43092 -18.3321
ltibia 64.2828
lfoot -19.2805 12.9237
ltoes 1.4811
784
root -0.771903 15.3349 8.08635 5.54997 -4.16459 -3.761
lowerback 17.8081 4.15245 -4.73025
upperback 1.91142 4.63221 1.11344
thorax -8.37761 2.40253 2.72678
lowerneck -1.9958 -4.26772 -4.14402
upperneck -0.196254 -5.65321 6.85387
head 0.623114 -2.79434 2.81865
rclavicle 6.4605e-015 -1.78906e-015
rhumerus -32.0217 12.1883 -71.1025
rradius 88.3782
rwrist 5.58727
rhand -21.0144 -42.857
rfingers 7.12502
rthumb 5.36046 -72.7692
lclavicle 6.4605e-015 -1.78906e-015
lhumerus -7.25162 -18.0233 76.5424
lradius 85.1911
lwrist 26.4024
lhand -28.9687 18.6329
lfingers 7.12502
lthumb -2.32146 48.6
rfemur -53.6077 -7.97084 20.3195
rtibia 104.22
rfoot -16.6675 -14.5854
rtoes -23.4973
lfemur -43.4052 -1.55136 -18.4515
ltibia 63.4633
lfoot -19.5655 12.8491
ltoes 1.28423
785
root -0.788201 15.391 8.20127 4.37782 -3.43005 -3.76511
lowerback 18.8342 4.0067 -4.85041
upperback 2.4232 4.38373 1.33056
thorax -8.38271 2.27816 3.05914
lowerneck -1.88641 -4.16869 -4.22536
upperneck -0.356106 -5.5151 6.91664
head 0.550053 -2.72851 2.86179
rclavicle 2.00773e-014 2.78299e-014
rhumerus -32.1257 11.4093 -71.0507
rradius 87.6552
rwrist 5.40844
rhand -21.1171 -42.9035
rfingers 7.12502
rthumb 5.26131 -72.8182
lclavicle 2.00773e-014 2.78299e-014
lhumerus -6.33046 -18.0758 76.6327
lradius 84.4636
lwrist 25.6566
lhand -29.2977 18.5149
lfingers 7.12502
lthumb -2.63922 48.4783
rfemur -57.208 -8.10093 20.7989
rtibia 105.617
rfoot -17.1966 -12.6018
rtoes -25.9893
lfemur -41.2355 -1.83624 -18.5231
ltibia 62.6244
lfoot -19.8487 12.5805
ltoes 1.45984
786
root -0.811657 15.4495 8.32341 2.98613 -2.84804 -3.69476
lowerback 19.9804 3.93417 -5.17622
upperback 2.95834 4.17889 1.53566
thorax -8.43514 2.18014 3.48572
lowerneck -1.76374 -4.16034 -4.10766
upperneck -0.444527 -5.50462 6.81882
head 0.492923 -2.72674 2.81108
rclavicle -1.88845e-014 2.28602e-014
rhumerus -32.1372 10.7415 -71.0357
rradius 86.6936
rwrist 5.20861
rhand -20.9061 -42.8277
rfingers 7.12502
rthumb 5.465 -72.7373
lclavicle -1.88845e-014 2.28602e-014
lhumerus -5.51747 -18.0696 76.7431
lradius 83.7972
lwrist 24.8136
lhand -29.54 18.6251
lfingers 7.12502
lthumb -2.87326 48.5854
rfemur -60.6211 -7.84715 20.9738
rtibia 107.074
rfoot -18.0778 -10.6125
rtoes -28.3019
lfemur -38.7161 -1.96786 -18.6885
ltibia 61.6997
lfoot -20.1904 12.3299
ltoes 1.7787
787
root -0.837349 15.5068 8.44437 1.37291 -2.12872 -3.68816
lowerback 21.3218 3.83288 -5.39603
upperback 3.58422 3.94818 1.78099
thorax -8.4712 2.06327 3.90708
lowerneck -1.43471 -4.20199 -3.90189
upperneck -0.800683 -5.55505 6.60875
head 0.312668 -2.7619 2.71374
rclavicle -9.79014e-015 -4.17448e-015
rhumerus -32.0575 10.1492 -70.954
rradius 85.7454
rwrist 4.853
rhand -20.7545 -43.1221
rfingers 7.12502
rthumb 5.61138 -73.0278
lclavicle -9.79014e-015 -4.17448e-015
lhumerus -4.6716 -18.0709 76.836
lradius 83.2343
lwrist 24.0616
lhand -29.6913 18.7343
lfingers 7.12502
lthumb -3.01936 48.6927
rfemur -63.8378 -7.70418 21.0178
rtibia 108.678
rfoot -18.6651 -8.79194
rtoes -29.6378
lfemur -35.9645 -2.18165 -18.7898
ltibia 60.7257
lfoot -20.4613 12.0616
ltoes 1.86634
788
root -0.865086 15.5637 8.56643 -0.395929 -1.26374 -3.74075
lowerback 22.7946 3.68639 -5.53231
upperback 4.24844 3.66991 2.04374
thorax -8.50709 1.91954 4.322
lowerneck -1.5607 -4.19647 -3.85425
upperneck -0.701801 -5.54911 6.50191
head 0.360158 -2.75622 2.66531
rclavicle -8.15017e-015 -1.53064e-014
rhumerus -31.978 9.62348 -70.8679
rradius 84.7779
rwrist 4.43303
rhand -20.5864 -43.0108
rfingers 7.12502
rthumb 5.77365 -72.9122
lclavicle -8.15017e-015 -1.53064e-014
lhumerus -3.75856 -18.1114 76.8702
lradius 82.7014
lwrist 23.5219
lhand -29.7762 18.9085
lfingers 7.12502
lthumb -3.1013 48.8657
rfemur -66.9377 -7.70442 20.9271
rtibia 110.458
rfoot -19.0082 -7.71177
rtoes -30.7878
lfemur -33.0345 -2.47853 -18.8374
ltibia 59.6843
lfoot -20.7085 11.7169
ltoes 2.16932
789
root -0.895807 15.6223 8.69228 -2.32892 -0.344875 -3.84077
lowerback 24.3573 3.52011 -5.64515
upperback 4.94575 3.36748 2.31596
thorax -8.52809 1.76172 4.75337
lowerneck -1.48507 -4.15844 -3.91182
upperneck -0.74342 -5.49748 6.5176
head 0.333432 -2.73191 2.68424
rclavicle 1.31198e-014 -9.93923e-015
rhumerus -31.9411 9.17627 -70.8003
rradius 83.866
rwrist 3.93551
rhand -20.2574 -43.1476
rfingers 7.12502
rthumb 6.09136 -73.0401
lclavicle 1.31198e-014 -9.93923e-015
lhumerus -2.91095 -18.1151 76.8908
lradius 82.2684
lwrist 23.1839
lhand -29.9616 19.048
lfingers 7.12502
lthumb -3.28037 49.0025
rfemur -69.8919 -7.81959 20.6997
rtibia 112.426
rfoot -18.7209 -7.22328
rtoes -31.1754
lfemur -29.8966 -2.80392 -18.8517
ltibia 58.5928
lfoot -20.9741 11.3496
ltoes 2.56229
790
root -0.927029 15.6846 8.82571 -4.37826 0.560767 -4.06105
lowerback 25.9096 3.33906 -5.63337
upperback 5.64298 3.08111 2.59668
thorax -8.51709 1.60721 5.13154
lowerneck -1.35087 -4.12272 -3.92492
upperneck -0.712534 -5.45388 6.46959
head 0.316378 -2.71202 2.67414
rclavicle -1.93815e-014 1.25234e-014
rhumerus -31.851 8.85503 -70.7433
rradius 82.8223
rwrist 3.48702
rhand -19.3933 -44.0595
rfingers 7.12502
rthumb 6.92549 -73.9262
lclavicle -1.93815e-014 1.25234e-014
lhumerus -2.17213 -18.1601 76.8862
lradius 81.9614
lwrist 23.1719
lhand -29.8915 18.8571
lfingers 7.12502
lthumb -3.21268 48.8126
rfemur -72.6979 -7.99023 20.3311
rtibia 114.485
rfoot -18.2912 -6.94629
rtoes -31.0486
lfemur -26.5766 -3.10798 -18.7543
ltibia 57.4399
lfoot -21.2624 10.974
ltoes 2.83148
791
root -0.962028 15.7394 8.96186 -6.41862 1.75677 -4.31761
lowerback 27.4258 3.03137 -5.58161
upperback 6.36476 2.65091 2.87952
thorax -8.41536 1.38053 5.55341
lowerneck -1.46094 -4.09489 -3.99778
upperneck -0.56264 -5.41911 6.4634
head 0.382741 -2.69139 2.68172
rclavicle 1.59028e-015 1.86858e-014
rhumerus -31.6882 8.72746 -70.6772
rradius 81.7916
rwrist 2.85865
rhand -19.2893 -44.0614
rfingers 7.12502
rthumb 7.02594 -73.9248
lclavicle 1.59028e-015 1.86858e-014
lhumerus -1.33357 -18.1455 76.8038
lradius 81.7078
lwrist 23.4671
lhand -29.8732 18.7711
lfingers 7.12502
lthumb -3.19503 48.7269
rfemur -75.6087 -8.60802 19.7485
rtibia 116.694
rfoot -17.6489 -6.77778
rtoes -30.6663
lfemur -23.3302 -3.60764 -18.6513
ltibia 56.2922
lfoot -21.5268 10.4803
ltoes 3.0821
792
root -0.998352 15.8039 9.10311 -8.46685 2.90567 -4.68484
lowerback 28.8587 2.73247 -5.43666
upperback 7.01348 2.26988 3.1601
thorax -8.33576 1.17798 5.91628
lowerneck -1.40651 -4.09096 -3.97803
upperneck -0.391194 -5.42193 6.35415
head 0.423326 -2.69237 2.64095
rclavicle -1.38652e-014 7.05686e-015
rhumerus -31.7147 8.66663 -70.62
rradius 80.7876
rwrist 2.22114
rhand -18.7548 -44.7695
rfingers 7.12502
rthumb 7.54183 -74.615
lclavicle -1.38652e-014 7.05686e-015
lhumerus -0.5586 -18.27 76.6973
lradius 81.4762
lwrist 23.9711
lhand -29.8578 18.9263
lfingers 7.12502
lthumb -3.18017 48.8823
rfemur -78.4898 -9.23812 19.0485
rtibia 118.803
rfoot -16.9069 -6.52974
rtoes -29.9305
lfemur -20.0725 -4.12232 -18.4457
ltibia 55.0887
lfoot -21.7333 10.0088
ltoes 3.25056
793
root -1.0381 15.8604 9.25231 -10.5024 4.04644 -5.23624
lowerback 30.1411 2.39334 -5.16262
upperback 7.64048 1.89433 3.45989
thorax -8.18662 0.975017 6.23587
lowerneck -1.2923 -4.09255 -3.95486
upperneck -0.182674 -5.43522 6.27879
head 0.466864 -2.69912 2.61171
rclavicle -2.18663e-015 3.97569e-015
rhumerus -31.7714 8.66964 -70.5905
rradius 79.7986
rwrist 1.50862
rhand -18.3362 -45.0657
rfingers 7.12502
rthumb 7.94586 -74.8964
lclavicle -2.18663e-015 3.97569e-015
lhumerus 0.159571 -18.431 76.5401
lradius 81.3274
lwrist 24.5655
lhand -29.7748 18.7069
lfingers 7.12502
lthumb -3.09995 48.6641
rfemur -81.4866 -9.99475 18.3664
rtibia 120.805
rfoot -16.1396 -6.1117
rtoes -29.0513
lfemur -16.8873 -4.62819 -18.046
ltibia 53.9277
lfoot -21.8891 9.58422
ltoes 3.20583
794
root -1.07707 15.916 9.41091 -12.562 5.20406 -5.72233
lowerback 31.5835 2.06678 -4.92374
upperback 7.90118 1.50827 3.94687
thorax -7.90094 0.731804 6.2945
lowerneck -1.23484 -4.0973 -3.97037
upperneck 0.128557 -5.45507 6.24661
head 0.555642 -2.70725 2.60152
rclavicle 6.26172e-015 -1.97791e-014
rhumerus -31.9902 8.74509 -70.577
rradius 79.0051
rwrist 0.827682
rhand -18.1348 -45.2347
rfingers 7.12502
rthumb 8.14027 -75.0579
lclavicle 6.26172e-015 -1.97791e-014
lhumerus 0.943408 -18.7253 76.2758
lradius 81.1463
lwrist 25.1721
lhand -29.7321 18.6524
lfingers 7.12502
lthumb -3.05876 48.6102
rfemur -84.4895 -10.9421 17.3792
rtibia 122.592
rfoot -15.6637 -5.41081
rtoes -28.3795
lfemur -13.6349 -5.22258 -17.7699
ltibia 52.7296
lfoot -21.9988 9.22825
ltoes 3.14366
795
root -1.11832 15.9651 9.5773 -14.5908 6.29983 -6.40848
lowerback 32.7098 1.71618 -4.50705
upperback 8.4342 1.18817 4.24207
thorax -7.72474 0.553276 6.48436
lowerneck -1.20133 -4.12311 -3.99092
upperneck 0.515626 -5.50554 6.22975
head 0.675016 -2.72962 2.5957
rclavicle 4.42296e-015 -3.03147e-014
rhumerus -32.3108 8.84689 -70.5508
rradius 78.258
rwrist 0.194033
rhand -18.0754 -45.1793
rfingers 7.12502
rthumb 8.19756 -75.0003
lclavicle 4.42296e-015 -3.03147e-014
lhumerus 1.70498 -19.1143 76.0454
lradius 80.9776
lwrist 25.6319
lhand -29.6659 18.5347
lfingers 7.12502
lthumb -2.99484 48.4935
rfemur -87.5691 -12.0073 16.5195
rtibia 124.05
rfoot -15.2925 -4.59739
rtoes -27.9193
lfemur -10.4561 -5.86393 -17.276
ltibia 51.5823
lfoot -22.1117 9.00531
ltoes 2.71328
796
root -1.15467 16.0057 9.75269 -16.5502 7.34093 -6.92579
lowerback 33.4945 1.39099 -4.28337
upperback 9.03603 0.849738 4.46459
thorax -7.32722 0.361086 6.71366
lowerneck -1.28439 -3.9352 -4.45023
upperneck 1.05047 -5.27471 6.71594
head 0.877708 -2.60672 2.84146
rclavicle 1.2275e-014 -2.26615e-014
rhumerus -32.5831 9.05159 -70.5358
rradius 77.5539
rwrist -0.401814
rhand -18.1481 -44.9035
rfingers 7.12502
rthumb 8.12744 -74.7272
lclavicle 1.2275e-014 -2.26615e-014
lhumerus 2.52926 -19.4624 75.7609
lradius 80.805
lwrist 25.9264
lhand -29.6507 18.5239
lfingers 7.12502
lthumb -2.98016 48.4829
rfemur -90.8009 -13.2182 15.4177
rtibia 125.15
rfoot -15.0408 -3.64372
rtoes -27.5809
lfemur -7.31219 -6.5131 -17.0102
ltibia 50.4248
lfoot -22.2364 8.95251
ltoes 2.23803
